<svg width="28" height="28" viewBox="0 0 28 28" fill="none" xmlns="http://www.w3.org/2000/svg">
<g id="material-symbols:shopping-basket-sharp">
<path id="Vector" d="M4.69593 24.5002L0.787598 10.5002H7.8751L13.0084 2.8585C13.1057 2.70294 13.2418 2.57655 13.4168 2.47933C13.5918 2.38211 13.7765 2.3335 13.9709 2.3335C14.1654 2.3335 14.3501 2.38211 14.5251 2.47933C14.7001 2.57655 14.8362 2.70294 14.9334 2.8585L20.0668 10.5002H27.2126L23.3043 24.5002H4.69593ZM10.7043 10.5002H17.2668L13.9709 5.60016L10.7043 10.5002ZM14.0001 19.8335C14.6418 19.8335 15.1913 19.6048 15.6486 19.1475C16.1059 18.6902 16.3342 18.1411 16.3334 17.5002C16.3334 16.8585 16.1048 16.309 15.6474 15.8517C15.1901 15.3943 14.641 15.1661 14.0001 15.1668C13.3584 15.1668 12.8089 15.3955 12.3516 15.8528C11.8943 16.3102 11.666 16.8593 11.6668 17.5002C11.6668 18.1418 11.8954 18.6913 12.3528 19.1487C12.8101 19.606 13.3592 19.8343 14.0001 19.8335Z" fill="#FBFBFB"/>
</g>
</svg>
