<svg width="24" height="24" viewBox="0 0 24 24" fill="none" xmlns="http://www.w3.org/2000/svg">
<g id="Icon">
<path id="Vector" d="M20.001 4H6.00098C4.90098 4 4.00098 4.9 4.00098 6V14C4.00098 16.21 5.79098 18 8.00098 18H14.001C16.211 18 18.001 16.21 18.001 14V11H20.001C20.5314 11 21.0401 10.7893 21.4152 10.4142C21.7903 10.0391 22.001 9.53043 22.001 9V6C22.001 4.9 21.101 4 20.001 4ZM20.001 9H18.001V6H20.001V9ZM5.00098 20H19.001C19.551 20 20.001 20.45 20.001 21C20.001 21.55 19.551 22 19.001 22H5.00098C4.45098 22 4.00098 21.55 4.00098 21C4.00098 20.45 4.45098 20 5.00098 20Z" fill="#7B5DBB"/>
</g>
</svg>
