<svg width="25" height="25" viewBox="0 0 25 25" fill="none" xmlns="http://www.w3.org/2000/svg">
<g id="clarity:image-gallery-line" clip-path="url(#clip0_388_11521)">
<path id="Vector" d="M21.9133 7.39331H3.08659C2.75418 7.39331 2.43539 7.52536 2.20034 7.7604C1.9653 7.99545 1.83325 8.31424 1.83325 8.64664V20.8066C1.83325 21.139 1.9653 21.4578 2.20034 21.6929C2.43539 21.9279 2.75418 22.06 3.08659 22.06H21.9133C22.2457 22.06 22.5644 21.9279 22.7995 21.6929C23.0345 21.4578 23.1666 21.139 23.1666 20.8066V8.64664C23.1666 8.31424 23.0345 7.99545 22.7995 7.7604C22.5644 7.52536 22.2457 7.39331 21.9133 7.39331ZM21.8333 20.7266H3.16659V8.72664H21.8333V20.7266Z" fill="#858585"/>
<path id="Vector_2" d="M6.20679 13.6931C6.60235 13.6931 6.98903 13.5758 7.31793 13.3561C7.64683 13.1363 7.90317 12.8239 8.05455 12.4585C8.20592 12.093 8.24553 11.6909 8.16836 11.3029C8.09119 10.915 7.90071 10.5586 7.621 10.2789C7.3413 9.9992 6.98493 9.80872 6.59697 9.73155C6.20901 9.65438 5.80687 9.69398 5.44142 9.84536C5.07597 9.99673 4.76361 10.2531 4.54385 10.582C4.32409 10.9109 4.20679 11.2976 4.20679 11.6931C4.20679 12.2236 4.4175 12.7323 4.79257 13.1073C5.16765 13.4824 5.67635 13.6931 6.20679 13.6931ZM6.20679 10.6265C6.41881 10.6211 6.6276 10.6792 6.80648 10.7931C6.98537 10.907 7.12623 11.0717 7.21106 11.2661C7.2959 11.4605 7.32087 11.6757 7.28277 11.8844C7.24467 12.093 7.14525 12.2856 6.99719 12.4374C6.84913 12.5893 6.65916 12.6935 6.45155 12.7369C6.24395 12.7803 6.02812 12.7608 5.83166 12.6809C5.63519 12.601 5.467 12.4643 5.34857 12.2884C5.23014 12.1125 5.16685 11.9052 5.16679 11.6931C5.1667 11.4148 5.27541 11.1474 5.46972 10.9481C5.66403 10.7489 5.92854 10.6334 6.20679 10.6265Z" fill="#858585"/>
<path id="Vector_3" d="M5.76678 19.3931L9.76678 15.3931L11.8868 17.5131L10.0068 19.3931H11.3401L16.3134 14.4198L20.5001 18.5731V17.2398L16.6334 13.3931C16.5448 13.3052 16.425 13.2559 16.3001 13.2559C16.1752 13.2559 16.0554 13.3052 15.9668 13.3931L12.5268 16.8331L10.0801 14.3931C9.99146 14.3052 9.87165 14.2559 9.74678 14.2559C9.62191 14.2559 9.5021 14.3052 9.41344 14.3931L4.44678 19.3931H5.76678Z" fill="#858585"/>
<path id="Vector_4" d="M20.5933 2.72648C20.5933 2.54967 20.523 2.3801 20.398 2.25508C20.273 2.13005 20.1034 2.05981 19.9266 2.05981H5.25993C5.08312 2.05981 4.91355 2.13005 4.78852 2.25508C4.6635 2.3801 4.59326 2.54967 4.59326 2.72648V3.39315H20.5933V2.72648Z" fill="#858585"/>
<path id="Vector_5" d="M21.9132 5.39323C21.9132 5.21642 21.843 5.04685 21.718 4.92182C21.593 4.7968 21.4234 4.72656 21.2466 4.72656H3.91325C3.73644 4.72656 3.56687 4.7968 3.44184 4.92182C3.31682 5.04685 3.24658 5.21642 3.24658 5.39323V6.0599H21.9132V5.39323Z" fill="#858585"/>
</g>
<defs>
<clipPath id="clip0_388_11521">
<rect width="24" height="24" fill="white" transform="translate(0.5 0.726562)"/>
</clipPath>
</defs>
</svg>
