<svg width="25" height="24" viewBox="0 0 25 24" fill="none" xmlns="http://www.w3.org/2000/svg">
<g id="clarity:image-gallery-line" clip-path="url(#clip0_397_14240)">
<path id="Vector" d="M21.9135 6.66669H3.08683C2.75442 6.66669 2.43563 6.79873 2.20059 7.03378C1.96554 7.26883 1.8335 7.58762 1.8335 7.92002V20.08C1.8335 20.4124 1.96554 20.7312 2.20059 20.9663C2.43563 21.2013 2.75442 21.3334 3.08683 21.3334H21.9135C22.2459 21.3334 22.5647 21.2013 22.7997 20.9663C23.0348 20.7312 23.1668 20.4124 23.1668 20.08V7.92002C23.1668 7.58762 23.0348 7.26883 22.7997 7.03378C22.5647 6.79873 22.2459 6.66669 21.9135 6.66669ZM21.8335 20H3.16683V8.00002H21.8335V20Z" fill="#407AB4"/>
<path id="Vector_2" d="M6.20654 12.9667C6.60211 12.9667 6.98878 12.8494 7.31768 12.6296C7.64658 12.4099 7.90293 12.0975 8.0543 11.732C8.20568 11.3666 8.24528 10.9645 8.16811 10.5765C8.09094 10.1885 7.90046 9.83217 7.62076 9.55246C7.34105 9.27276 6.98469 9.08228 6.59672 9.00511C6.20876 8.92793 5.80663 8.96754 5.44118 9.11892C5.07572 9.27029 4.76337 9.52664 4.5436 9.85554C4.32384 10.1844 4.20654 10.5711 4.20654 10.9667C4.20654 11.4971 4.41726 12.0058 4.79233 12.3809C5.1674 12.756 5.67611 12.9667 6.20654 12.9667ZM6.20654 9.90001C6.41857 9.89471 6.62735 9.95273 6.80624 10.0667C6.98512 10.1806 7.12598 10.3453 7.21082 10.5397C7.29566 10.734 7.32062 10.9493 7.28253 11.1579C7.24443 11.3666 7.145 11.5591 6.99694 11.711C6.84888 11.8628 6.65892 11.9671 6.45131 12.0105C6.2437 12.0538 6.02788 12.0343 5.83141 11.9544C5.63495 11.8746 5.46676 11.7379 5.34833 11.562C5.2299 11.386 5.16661 11.1788 5.16654 10.9667C5.16646 10.6883 5.27517 10.421 5.46948 10.2217C5.66378 10.0224 5.92829 9.90697 6.20654 9.90001Z" fill="#407AB4"/>
<path id="Vector_3" d="M5.76678 18.6667L9.76678 14.6667L11.8868 16.7867L10.0068 18.6667H11.3401L16.3134 13.6934L20.5001 17.8467V16.5134L16.6334 12.6667C16.5448 12.5788 16.425 12.5294 16.3001 12.5294C16.1752 12.5294 16.0554 12.5788 15.9668 12.6667L12.5268 16.1067L10.0801 13.6667C9.99146 13.5788 9.87165 13.5294 9.74678 13.5294C9.62191 13.5294 9.5021 13.5788 9.41344 13.6667L4.44678 18.6667H5.76678Z" fill="#407AB4"/>
<path id="Vector_4" d="M20.5933 1.99998C20.5933 1.82317 20.523 1.6536 20.398 1.52858C20.273 1.40355 20.1034 1.33331 19.9266 1.33331H5.25993C5.08312 1.33331 4.91355 1.40355 4.78852 1.52858C4.6635 1.6536 4.59326 1.82317 4.59326 1.99998V2.66665H20.5933V1.99998Z" fill="#407AB4"/>
<path id="Vector_5" d="M21.9132 4.66667C21.9132 4.48986 21.843 4.32029 21.718 4.19526C21.593 4.07024 21.4234 4 21.2466 4H3.91325C3.73644 4 3.56687 4.07024 3.44184 4.19526C3.31682 4.32029 3.24658 4.48986 3.24658 4.66667V5.33333H21.9132V4.66667Z" fill="#407AB4"/>
</g>
<defs>
<clipPath id="clip0_397_14240">
<rect width="24" height="24" fill="white" transform="translate(0.5)"/>
</clipPath>
</defs>
</svg>
