<svg width="25" height="24" viewBox="0 0 25 24" fill="none" xmlns="http://www.w3.org/2000/svg">
<g id="fluent:mountain-location-bottom-28-regular">
<path id="Vector" d="M10.9007 3.20057C11.3362 2.79829 11.9072 2.57489 12.5001 2.57489C13.093 2.57489 13.664 2.79829 14.0995 3.20057L20.8958 9.47829C21.2216 9.77933 21.4816 10.1445 21.6593 10.5509C21.8371 10.9573 21.9288 11.3961 21.9287 11.8397V19.0714C21.9287 19.6966 21.6803 20.2961 21.2383 20.7382C20.7962 21.1802 20.1967 21.4286 19.5715 21.4286H14.0378C14.3835 21.016 14.709 20.5869 15.0132 20.1429H19.5715C20.163 20.1429 20.643 19.6629 20.643 19.0714V11.8397C20.643 11.5736 20.588 11.3103 20.4813 11.0665C20.3747 10.8226 20.2187 10.6035 20.0232 10.4229L17.7347 8.30829C16.0152 8.06743 14.6258 8.65372 13.1404 9.28114C12.8892 9.38743 12.6338 9.49543 12.3732 9.6C11.4715 9.96429 10.5038 10.2909 9.45553 10.29C8.43639 10.29 7.3941 9.98143 6.28839 9.21086L4.97696 10.4229C4.78149 10.6035 4.62552 10.8226 4.51887 11.0665C4.41222 11.3103 4.35719 11.5736 4.35725 11.8397V19.0714C4.35725 19.6629 4.83725 20.1429 5.42868 20.1429H9.98696C10.2912 20.5869 10.6167 21.016 10.9624 21.4286H5.42868C4.80352 21.4286 4.20397 21.1802 3.76192 20.7382C3.31987 20.2961 3.07153 19.6966 3.07153 19.0714V11.8397C3.07144 11.3961 3.16315 10.9573 3.3409 10.5509C3.51866 10.1445 3.77861 9.77933 4.10439 9.47829L10.9007 3.20057ZM13.227 4.14515C13.029 3.96238 12.7695 3.86089 12.5001 3.86089C12.2307 3.86089 11.9712 3.96238 11.7732 4.14515L7.26039 8.31343C8.07468 8.82772 8.79039 9.00429 9.45553 9.00429C10.245 9.00429 11.0224 8.75914 11.8924 8.40772C12.1195 8.316 12.3535 8.21657 12.5952 8.11372C13.6795 7.65086 14.9061 7.12714 16.3161 6.99943L13.227 4.14515ZM15.5001 16.6886C15.5001 18.2143 13.9538 20.1771 13.0812 21.1637C13.0088 21.2467 12.9195 21.3131 12.8193 21.3587C12.719 21.4043 12.6102 21.4278 12.5001 21.4278C12.39 21.4278 12.2812 21.4043 12.1809 21.3587C12.0807 21.3131 11.9914 21.2467 11.919 21.1637C11.0464 20.178 9.5001 18.2143 9.5001 16.6894C9.5001 15.0454 10.8432 13.7143 12.5001 13.7143C14.157 13.7143 15.5001 15.0463 15.5001 16.6886ZM14.0001 16.6886C14.0001 15.8674 13.3281 15.2014 12.5001 15.2014C11.6721 15.2014 11.0001 15.8674 11.0001 16.6886C11.0001 17.5106 11.6721 18.1757 12.5001 18.1757C13.3281 18.1757 14.0001 17.5106 14.0001 16.6886Z" fill="#858585"/>
</g>
</svg>
