<svg width="25" height="24" viewBox="0 0 25 24" fill="none" xmlns="http://www.w3.org/2000/svg">
<g id="fluent:mountain-location-bottom-28-filled">
<path id="Vector" d="M14.0994 3.20057C13.6639 2.79829 13.0928 2.57489 12.5 2.57489C11.9071 2.57489 11.336 2.79829 10.9006 3.20057L4.10427 9.47829C3.77849 9.77933 3.51854 10.1445 3.34078 10.5509C3.16303 10.9573 3.07131 11.3961 3.07141 11.8397V19.0714C3.07141 19.6966 3.31975 20.2961 3.7618 20.7382C4.20385 21.1802 4.8034 21.4286 5.42855 21.4286H11.0137C10.515 20.8461 10.06 20.2276 9.65255 19.578C9.13827 18.7431 8.64284 17.7 8.64284 16.6894C8.64284 14.5646 10.3768 12.8571 12.5 12.8571C14.6231 12.8571 16.3571 14.5654 16.3571 16.6886C16.3571 17.7 15.8617 18.7431 15.3474 19.578C14.912 20.2851 14.4046 20.9349 13.9863 21.4286H19.5714C20.1966 21.4286 20.7961 21.1802 21.2382 20.7382C21.6802 20.2961 21.9286 19.6966 21.9286 19.0714V11.8397C21.9287 11.3961 21.8369 10.9573 21.6592 10.5509C21.4814 10.1445 21.2215 9.77933 20.8957 9.47829L14.0994 3.20057ZM11.7731 4.14515C11.9711 3.96238 12.2306 3.86089 12.5 3.86089C12.7694 3.86089 13.0289 3.96238 13.2268 4.14515L16.316 6.99943C14.906 7.12715 13.6794 7.65086 12.5943 8.11372C12.3543 8.21657 12.1194 8.316 11.8914 8.40772C11.0223 8.75915 10.2457 9.00515 9.45627 9.00429C8.79027 9.00429 8.07455 8.82857 7.26027 8.31343L11.7731 4.14515ZM15.5 16.6886C15.5 18.2143 13.9537 20.1771 13.0811 21.1637C13.0087 21.2467 12.9194 21.3131 12.8192 21.3587C12.7189 21.4043 12.6101 21.4278 12.5 21.4278C12.3899 21.4278 12.281 21.4043 12.1808 21.3587C12.0806 21.3131 11.9912 21.2467 11.9188 21.1637C11.0463 20.178 9.49998 18.2143 9.49998 16.6894C9.49998 15.0454 10.8431 13.7143 12.5 13.7143C14.1568 13.7143 15.5 15.0463 15.5 16.6886ZM14 16.6886C14 15.8674 13.328 15.2014 12.5 15.2014C11.672 15.2014 11 15.8674 11 16.6886C11 17.5106 11.672 18.1757 12.5 18.1757C13.328 18.1757 14 17.5106 14 16.6886Z" fill="#407AB4"/>
</g>
</svg>
