<svg width="51" height="25" viewBox="0 0 51 25" fill="none" xmlns="http://www.w3.org/2000/svg">
<g id="Logo - CGI - RVB">
<path id="Path 4" d="M12.6949 5.07329C11.7212 5.04664 10.752 5.21554 9.84473 5.57C8.93743 5.92446 8.11044 6.45728 7.41266 7.13694C6.71489 7.8166 6.16051 8.6293 5.78231 9.52696C5.40412 10.4246 5.20979 11.389 5.21083 12.3631C5.21083 16.77 8.81386 19.6529 12.7223 19.6529C15.3277 19.6529 17.7946 18.4889 19.901 16.6316V22.0919C17.5991 23.4301 14.9961 24.1643 12.3343 24.2262C5.62673 24.2262 0 18.7658 0 12.3631C0 5.57238 5.65465 0.5 12.3622 0.5C14.9827 0.543103 17.5634 1.14811 19.93 2.27416V7.62344C17.4619 5.98829 14.9676 5.07329 12.6949 5.07329Z" fill="#E31937"/>
<path id="Path 5" d="M34.1758 24.2262C27.4404 24.2262 21.7305 18.9874 21.7305 12.3631C21.7305 5.68292 27.3851 0.5 34.4806 0.5C37.138 0.531008 39.7642 1.07702 42.2137 2.1078V7.42972C39.9684 6.12673 37.0861 5.1012 34.5912 5.1012C33.6089 5.07239 32.6307 5.23864 31.7131 5.59031C30.7955 5.94199 29.9567 6.47212 29.2453 7.15004C28.5339 7.82796 27.964 8.64021 27.5685 9.53981C27.173 10.4394 26.9598 11.4085 26.9413 12.391C26.9413 16.6896 30.4891 19.8193 34.6744 19.8193C35.6297 19.851 36.5817 19.6907 37.4741 19.3481V15.0495H33.6779V10.5337H42.3533V22.5363C39.7769 23.6692 36.9902 24.2451 34.1758 24.2262Z" fill="#E31937"/>
<path id="Path 6" d="M46.1219 23.7549V0.971069H51V23.7549H46.1219Z" fill="#E31937"/>
</g>
</svg>
