<svg width="28" height="28" viewBox="0 0 28 28" fill="none" xmlns="http://www.w3.org/2000/svg">
<g id="maki:mountain">
<path id="Vector" d="M14 1.8667C13.44 1.8667 13.2534 2.24003 12.88 2.61337L2.05337 20.3467C1.8667 20.5334 1.8667 20.9067 1.8667 21.0934C1.8667 22.0267 2.61337 22.4 3.17337 22.4H24.8267C25.5734 22.4 26.1334 22.0267 26.1334 21.0934C26.1334 20.72 26.1334 20.72 25.9467 20.3467L15.3067 2.61337C14.9334 2.24003 14.56 1.8667 14 1.8667ZM14 4.6667L20.16 14.9334H18.6667L15.8667 12.1334L14 14.9334L12.1334 12.1334L9.33337 14.9334H7.65337L14 4.6667Z" fill="white"/>
</g>
</svg>
