<svg width="28" height="28" viewBox="0 0 28 28" fill="none" xmlns="http://www.w3.org/2000/svg">
<g id="mdi:emoticon-cool">
<path id="Vector" d="M3.75683 8.4235C4.7577 6.58015 6.23775 5.04127 8.04071 3.96935C9.84367 2.89743 11.9026 2.33226 14.0002 2.3335C18.4218 2.3335 22.2718 4.79516 24.2435 8.4235L23.3335 9.3335H4.66683L3.75683 8.4235ZM24.9668 10.0335C25.4102 11.2818 25.6668 12.6118 25.6668 14.0002C25.6668 17.0944 24.4377 20.0618 22.2497 22.2497C20.0618 24.4377 17.0944 25.6668 14.0002 25.6668C12.4681 25.6668 10.951 25.3651 9.53552 24.7788C8.12006 24.1925 6.83393 23.3331 5.75058 22.2497C3.56266 20.0618 2.3335 17.0944 2.3335 14.0002C2.3335 12.6118 2.59016 11.2818 3.0335 10.0335L4.66683 11.6668H5.8335C5.8335 13.2768 8.30683 14.5835 9.91683 14.5835C11.5268 14.5835 13.1252 13.2768 13.1252 11.6668H14.8752C14.8752 13.2768 16.4735 14.5835 18.0835 14.5835C19.6935 14.5835 22.1668 13.2768 22.1668 11.6668H23.3335L24.9668 10.0335ZM18.8885 17.9902L17.2318 16.3335C16.7068 17.1735 15.4585 17.7685 14.0002 17.7685C12.5418 17.7685 11.2935 17.1735 10.7685 16.3335L9.11183 17.9902C10.1618 19.2502 11.9585 20.1018 14.0002 20.1018C16.0418 20.1018 17.8385 19.2502 18.8885 17.9902Z" fill="#FBFBFB"/>
</g>
</svg>
