<svg width="24" height="24" viewBox="0 0 24 24" fill="none" xmlns="http://www.w3.org/2000/svg">
<g id="material-symbols:settings-phone-sharp">
<path id="Vector" d="M12.0005 10.999C11.7172 10.999 11.4795 10.903 11.2875 10.711C11.0955 10.519 10.9998 10.2817 11.0005 9.99902C11.0005 9.71569 11.0965 9.47802 11.2885 9.28602C11.4805 9.09402 11.7178 8.99836 12.0005 8.99902C12.2838 8.99902 12.5215 9.09502 12.7135 9.28702C12.9055 9.47902 13.0012 9.71636 13.0005 9.99902C13.0005 10.2824 12.9045 10.52 12.7125 10.712C12.5205 10.904 12.2832 10.9997 12.0005 10.999ZM16.0005 10.999C15.7172 10.999 15.4795 10.903 15.2875 10.711C15.0955 10.519 14.9998 10.2817 15.0005 9.99902C15.0005 9.71569 15.0965 9.47802 15.2885 9.28602C15.4805 9.09402 15.7178 8.99836 16.0005 8.99902C16.2838 8.99902 16.5215 9.09502 16.7135 9.28702C16.9055 9.47902 17.0012 9.71636 17.0005 9.99902C17.0005 10.2824 16.9045 10.52 16.7125 10.712C16.5205 10.904 16.2832 10.9997 16.0005 10.999ZM20.0005 10.999C19.7172 10.999 19.4795 10.903 19.2875 10.711C19.0955 10.519 18.9998 10.2817 19.0005 9.99902C19.0005 9.71569 19.0965 9.47802 19.2885 9.28602C19.4805 9.09402 19.7178 8.99836 20.0005 8.99902C20.2838 8.99902 20.5215 9.09502 20.7135 9.28702C20.9055 9.47902 21.0012 9.71636 21.0005 9.99902C21.0005 10.2824 20.9045 10.52 20.7125 10.712C20.5205 10.904 20.2832 10.9997 20.0005 10.999ZM19.9505 20.999C17.8005 20.999 15.7045 20.524 13.6625 19.574C11.6205 18.624 9.81216 17.3574 8.23749 15.774C6.66282 14.1907 5.39616 12.378 4.43749 10.336C3.47882 8.29402 2.99982 6.19836 3.00049 4.04902V3.52402C3.00049 3.34069 3.01716 3.16569 3.05049 2.99902H8.90049L9.82549 8.02402L6.97549 10.899C7.67549 12.099 8.55482 13.224 9.61349 14.274C10.6722 15.324 11.8345 16.2324 13.1005 16.999L16.0005 14.099L21.0005 15.099V20.949C20.8338 20.9657 20.6588 20.9784 20.4755 20.987C20.2922 20.9957 20.1172 20.9997 19.9505 20.999Z" fill="#7B5DBB"/>
</g>
</svg>
